<svg width="1080" height="1080" viewBox="0 0 1080 1080" fill="none" xmlns="http://www.w3.org/2000/svg">
<path d="M220.554 97.417C253.752 95.4398 292.192 100.703 331.944 108.833C371.79 116.982 414.123 128.274 455.005 138.792C496.154 149.379 535.856 159.19 571.438 164.771C607.232 170.386 639.43 173.204 669.023 175.463C698.401 177.705 725.799 179.427 750.927 182.869C801.97 189.861 845.875 204.212 886.6 245.724C966.908 327.584 974.701 455.771 959.919 564.811C944.515 678.444 887.924 726.748 813.664 806.438C777.042 845.738 742.713 887.673 705.61 919.769C667.799 952.477 625.294 976.772 570.312 981.177C462.702 989.797 351.993 929.918 283.245 846.432C247.384 802.882 239.61 765.688 236.98 722.614C234.387 680.125 236.595 633.935 222.228 565.895C215.14 532.331 202.118 494.355 187.249 454.446C172.539 414.965 155.89 373.268 142.395 333.93C128.887 294.555 117.969 255.995 114.882 221.956C111.812 188.1 116.244 155.921 136.768 132.247C157.143 108.744 187.414 99.3908 220.554 97.417Z" fill="#121212" stroke="white" stroke-width="30"/>
<path d="M351 283.053C414.439 283.053 465.947 334.695 465.947 398.5C465.947 462.305 414.439 513.947 351 513.947C287.561 513.947 236.053 462.305 236.053 398.5C236.053 334.695 287.561 283.053 351 283.053Z" fill="white" stroke="#121212" stroke-width="24.1053"/>
<circle cx="513" cy="432" r="114.947" fill="white" stroke="#121212" stroke-width="24.1053"/>
<circle cx="367.5" cy="412.5" r="38.8974" fill="#121212" stroke="#121212" stroke-width="1.20526"/>
<path d="M529 412.603C550.199 412.603 567.397 430.01 567.397 451.5C567.397 472.99 550.199 490.397 529 490.397C507.801 490.397 490.603 472.99 490.603 451.5C490.603 430.01 507.801 412.603 529 412.603Z" fill="#121212" stroke="#121212" stroke-width="1.20526"/>
<rect x="304.568" y="575.717" width="219.902" height="81.7401" rx="40.87" transform="rotate(7.1769 304.568 575.717)" fill="black" stroke="white" stroke-width="30"/>
<circle cx="540.5" cy="540.5" r="9.5" fill="white"/>
</svg>
